<svg viewBox="0 0 800 500" xmlns="http://www.w3.org/2000/svg">
  <rect width="800" height="500" fill="#F5F0E1"/>
  <rect x="0" y="0" width="800" height="260" fill="#DCEFF7"/>
  <rect x="0" y="250" width="800" height="250" fill="#EFE7CF"/>
  <!-- chalkboard -->
  <rect x="60" y="50" width="360" height="170" fill="#204F38" stroke="#14213D" stroke-width="8"/>
  <rect x="60" y="220" width="360" height="14" fill="#8B5A2B"/>
  <path d="M100 110 L180 110 M100 140 L260 140 M100 170 L220 170" stroke="#F5F0E1" stroke-width="5" stroke-linecap="round"/>
  <!-- teacher -->
  <g>
    <circle cx="470" cy="110" r="30" fill="#C88B5E"/>
    <rect x="440" y="140" width="60" height="90" fill="#7A2632"/>
    <rect x="430" y="150" width="20" height="60" fill="#C88B5E"/>
    <rect x="500" y="150" width="20" height="60" fill="#C88B5E"/>
  </g>
  <!-- desks with students -->
  <g>
    <rect x="90" y="330" width="140" height="18" fill="#8B5A2B"/>
    <rect x="100" y="348" width="16" height="60" fill="#5C3A1E"/>
    <rect x="200" y="348" width="16" height="60" fill="#5C3A1E"/>
    <circle cx="160" cy="300" r="26" fill="#E8B27A"/>
    <rect x="134" y="326" width="52" height="50" fill="#E8A33D"/>
  </g>
  <g>
    <rect x="320" y="330" width="140" height="18" fill="#8B5A2B"/>
    <rect x="330" y="348" width="16" height="60" fill="#5C3A1E"/>
    <rect x="430" y="348" width="16" height="60" fill="#5C3A1E"/>
    <circle cx="390" cy="300" r="26" fill="#C88B5E"/>
    <rect x="364" y="326" width="52" height="50" fill="#2F6F4E"/>
  </g>
  <g>
    <rect x="550" y="330" width="140" height="18" fill="#8B5A2B"/>
    <rect x="560" y="348" width="16" height="60" fill="#5C3A1E"/>
    <rect x="660" y="348" width="16" height="60" fill="#5C3A1E"/>
    <circle cx="620" cy="300" r="26" fill="#E8B27A"/>
    <rect x="594" y="326" width="52" height="50" fill="#7A2632"/>
  </g>
  <!-- window -->
  <rect x="600" y="50" width="150" height="150" fill="#7EC8E3" stroke="#14213D" stroke-width="8"/>
  <path d="M675 50 V200 M600 125 H750" stroke="#14213D" stroke-width="6"/>
</svg>
