<svg viewBox="0 0 800 500" xmlns="http://www.w3.org/2000/svg">
  <rect width="800" height="500" fill="#14213D"/>
  <!-- stage -->
  <rect x="0" y="360" width="800" height="140" fill="#7A2632"/>
  <rect x="0" y="350" width="800" height="14" fill="#E8A33D"/>
  <!-- curtains -->
  <rect x="0" y="0" width="90" height="500" fill="#7A2632"/>
  <rect x="710" y="0" width="90" height="500" fill="#7A2632"/>
  <rect x="90" y="0" width="20" height="500" fill="#5E1E27"/>
  <rect x="690" y="0" width="20" height="500" fill="#5E1E27"/>
  <!-- string lights -->
  <path d="M110 40 Q400 100 690 40" fill="none" stroke="#E8A33D" stroke-width="3"/>
  <circle cx="180" cy="58" r="6" fill="#F5C518"/>
  <circle cx="300" cy="80" r="6" fill="#F5C518"/>
  <circle cx="400" cy="88" r="6" fill="#F5C518"/>
  <circle cx="500" cy="80" r="6" fill="#F5C518"/>
  <circle cx="620" cy="58" r="6" fill="#F5C518"/>
  <!-- Bihu dancer (stylized, flat) -->
  <g>
    <circle cx="380" cy="230" r="34" fill="#E8B27A"/>
    <path d="M346 220 Q380 190 414 220 L414 235 Q380 210 346 235 Z" fill="#14213D"/>
    <rect x="350" y="264" width="60" height="80" fill="#E8A33D"/>
    <path d="M350 264 L300 320 L330 340 L365 285 Z" fill="#F5C518"/>
    <path d="M410 264 L460 320 L430 340 L395 285 Z" fill="#F5C518"/>
    <path d="M355 344 L320 420 L350 430 L380 350 Z" fill="#C1573A"/>
    <path d="M405 344 L440 420 L410 430 L380 350 Z" fill="#C1573A"/>
  </g>
  <!-- drummer (dhol) -->
  <g>
    <circle cx="530" cy="250" r="26" fill="#C88B5E"/>
    <rect x="505" y="276" width="50" height="60" fill="#2F6F4E"/>
    <rect x="480" y="330" width="100" height="40" fill="#8B5A2B" stroke="#14213D" stroke-width="4"/>
  </g>
  <!-- flowers/props -->
  <circle cx="230" cy="400" r="10" fill="#F5C518"/>
  <circle cx="260" cy="410" r="10" fill="#E8A33D"/>
  <circle cx="620" cy="400" r="10" fill="#F5C518"/>
</svg>
